# xmcd
#
# Track frame offsets: 
#        150
#        11870
#        27924
#        46272
#        58266
#        73878
#        85411
#        101500
#        115101
#        127559
#        143098
#        161021
#        181022
#        192296
#        203929
#        220342
#        234515
#        245993
#        262008
#        273555
#        286197
#        339080
#
# Disc length: 4676 seconds
#
# Revision: 1
# Processed by: cddbd v1.5.2PL0 Copyright (c) Steve Scherf et al.
# Submitted via: ExactAudioCopyFreeDBPlugin 1.0
#
DISCID=47124216
DTITLE=Various Artist - Let It Be:  Black America Sings Lennon, McCar
DTITLE=tney and Harrison
DYEAR=2016
DGENRE=Soul
TTITLE0=Aretha Franklin - Eleanor Rigby
TTITLE1=The 5 Stairsteps - Dear Prudence
TTITLE2=Earth, Wind and Fire - Got to Get You Into My Life
TTITLE3=Mary Wells - Do You Want to Know a Secret
TTITLE4=The Four Tops - The Fool on the Hill
TTITLE5=Fats Domino - Lovely Rita
TTITLE6=Nina Simone - Here Comes the Sun
TTITLE7=Arthur Conley - Ob-La-Di, Ob-La-Da
TTITLE8=The Supremes - A World Without Love
TTITLE9=Junior Parker - Tomorrow Never Knows
TTITLE10=Randy Crawford - Don't Let Me Down
TTITLE11=The Undisputed Truth - With a Little Help from My Friends
TTITLE12=Screamin' Jay Hawkins - A Hard Day's Night
TTITLE13=Ike and Tina Turner - She Came in Through the Bathroom Window
TTITLE14=Maceo and All The King's Men - For No One
TTITLE15=Gary U.S. Bonds - It's Only Love
TTITLE16=Dionne Warwick - We Can Work it Out
TTITLE17=The Temptations - Hey Jude
TTITLE18=Boyz II Men - In My Life
TTITLE19=Ella Fitzgerald - Savoy Truffle
TTITLE20=Isaac Hayes - Something
TTITLE21=Bill Withers - Let it Be
EXTD=
EXTT0=
EXTT1=
EXTT2=
EXTT3=
EXTT4=
EXTT5=
EXTT6=
EXTT7=
EXTT8=
EXTT9=
EXTT10=
EXTT11=
EXTT12=
EXTT13=
EXTT14=
EXTT15=
EXTT16=
EXTT17=
EXTT18=
EXTT19=
EXTT20=
EXTT21=
PLAYORDER=
